<?xml version="1.0" encoding="UTF-8" standalone="no"?>
<!-- Generator: Adobe Illustrator 18.0.0, SVG Export Plug-In . SVG Version: 6.00 Build 0)  -->

<svg
   xmlns:dc="http://purl.org/dc/elements/1.1/"
   xmlns:cc="http://creativecommons.org/ns#"
   xmlns:rdf="http://www.w3.org/1999/02/22-rdf-syntax-ns#"
   xmlns:svg="http://www.w3.org/2000/svg"
   xmlns="http://www.w3.org/2000/svg"
   xmlns:sodipodi="http://sodipodi.sourceforge.net/DTD/sodipodi-0.dtd"
   xmlns:inkscape="http://www.inkscape.org/namespaces/inkscape"
   version="1.1"
   id="Capa_1"
   x="0px"
   y="0px"
   viewBox="0 0 20 20"
   xml:space="preserve"
   inkscape:version="0.91 r13725"
   sodipodi:docname="flag.svg"
   width="20"
   height="20"><metadata
     id="metadata3477"><rdf:RDF><cc:Work
         rdf:about=""><dc:format>image/svg+xml</dc:format><dc:type
           rdf:resource="http://purl.org/dc/dcmitype/StillImage" /><dc:title></dc:title></cc:Work></rdf:RDF></metadata><defs
     id="defs3475" /><sodipodi:namedview
     pagecolor="#ffffff"
     bordercolor="#666666"
     borderopacity="0"
     objecttolerance="10"
     gridtolerance="10"
     guidetolerance="10"
     inkscape:pageopacity="0"
     inkscape:pageshadow="2"
     inkscape:window-width="1920"
     inkscape:window-height="1022"
     id="namedview3473"
     showgrid="false"
     inkscape:zoom="8.4448506"
     inkscape:cx="29.272677"
     inkscape:cy="15.876889"
     inkscape:window-x="1366"
     inkscape:window-y="27"
     inkscape:window-maximized="1"
     inkscape:current-layer="Capa_1" /><path
     d="m 4.8895534,16.712231 c 0,0.275901 0.2116869,0.499635 0.4727347,0.499635 l 1.5599037,0 c 0.2610476,0 0.4727346,-0.223734 0.4727346,-0.499635 l 0,-6.052 9.8347566,-3.9478226 c 0.190261,-0.076381 0.312938,-0.2728632 0.304424,-0.4878532 -0.0085,-0.21499 -0.146307,-0.4000978 -0.34192,-0.459394 L 5.4926679,2.2179458 C 5.3499972,2.1747676 5.1963708,2.204674 5.0778522,2.2991737 4.9592879,2.3935531 4.8895534,2.5412596 4.8895534,2.6982144 l 0,14.0140166 z m 1.5600048,-0.49963 -0.6145405,0 0,-4.926214 0.6145405,-0.246626 0,5.17284 z m -0.6145405,-5.995081 0,-6.8562475 9.7306383,2.9503296 -9.7306383,3.9059179 z"
     id="path3441"
     inkscape:connector-curvature="0" /><g
     id="g3443"
     transform="translate(0,-277)" /><g
     id="g3445"
     transform="translate(0,-277)" /><g
     id="g3447"
     transform="translate(0,-277)" /><g
     id="g3449"
     transform="translate(0,-277)" /><g
     id="g3451"
     transform="translate(0,-277)" /><g
     id="g3453"
     transform="translate(0,-277)" /><g
     id="g3455"
     transform="translate(0,-277)" /><g
     id="g3457"
     transform="translate(0,-277)" /><g
     id="g3459"
     transform="translate(0,-277)" /><g
     id="g3461"
     transform="translate(0,-277)" /><g
     id="g3463"
     transform="translate(0,-277)" /><g
     id="g3465"
     transform="translate(0,-277)" /><g
     id="g3467"
     transform="translate(0,-277)" /><g
     id="g3469"
     transform="translate(0,-277)" /><g
     id="g3471"
     transform="translate(0,-277)" /><path
     style="fill:#ff0000"
     d="m 5.8507581,6.7864117 c 0,-3.2400918 0.00152,-3.4109429 0.030196,-3.4026976 0.3605537,0.1037358 9.6188099,2.9182916 9.6275399,2.9268191 0.0069,0.00673 -0.124993,0.066702 -0.29306,0.1332818 -0.168071,0.066575 -2.3303,0.9343717 -4.804951,1.9284364 -2.4746502,0.9940589 -4.5129382,1.8114726 -4.5295285,1.8164616 -0.028679,0.0086 -0.030196,-0.162054 -0.030196,-3.4023013 z"
     id="path3479"
     inkscape:connector-curvature="0" /></svg>