<?xml version="1.0" encoding="UTF-8" standalone="no"?>
<!-- Created with Inkscape (http://www.inkscape.org/) -->

<svg
   xmlns:dc="http://purl.org/dc/elements/1.1/"
   xmlns:cc="http://creativecommons.org/ns#"
   xmlns:rdf="http://www.w3.org/1999/02/22-rdf-syntax-ns#"
   xmlns:svg="http://www.w3.org/2000/svg"
   xmlns="http://www.w3.org/2000/svg"
   xmlns:sodipodi="http://sodipodi.sourceforge.net/DTD/sodipodi-0.dtd"
   xmlns:inkscape="http://www.inkscape.org/namespaces/inkscape"
   width="20"
   height="20"
   viewBox="0 0 20 20"
   id="svg3576"
   version="1.1"
   inkscape:version="0.91 r13725"
   sodipodi:docname="mine.svg">
  <defs
     id="defs3578" />
  <sodipodi:namedview
     id="base"
     pagecolor="#ffffff"
     bordercolor="#666666"
     borderopacity="1.0"
     inkscape:pageopacity="0.0"
     inkscape:pageshadow="2"
     inkscape:zoom="22.4"
     inkscape:cx="17.179362"
     inkscape:cy="7.4767527"
     inkscape:document-units="px"
     inkscape:current-layer="layer1"
     showgrid="false"
     units="px"
     inkscape:window-width="1920"
     inkscape:window-height="1022"
     inkscape:window-x="1366"
     inkscape:window-y="27"
     inkscape:window-maximized="1" />
  <metadata
     id="metadata3581">
    <rdf:RDF>
      <cc:Work
         rdf:about="">
        <dc:format>image/svg+xml</dc:format>
        <dc:type
           rdf:resource="http://purl.org/dc/dcmitype/StillImage" />
        <dc:title></dc:title>
      </cc:Work>
    </rdf:RDF>
  </metadata>
  <g
     inkscape:label="Layer 1"
     inkscape:groupmode="layer"
     id="layer1"
     transform="translate(0,-1032.3622)">
    <g
       id="g3623"
       transform="matrix(0.05317437,0,0,0.08169278,0.54327785,1030.059)">
      <path
         id="path3585"
         d="m 361.756,254.972 c -2.415,-1.844 -5.865,-1.382 -7.709,1.032 -2.802,3.668 -7.056,5.771 -11.671,5.771 -4.615,0 -8.869,-2.104 -11.671,-5.771 -4.9,-6.415 -12.34,-10.094 -20.412,-10.094 -1.288,0 -2.557,0.104 -3.804,0.287 -1.743,-20.688 -8.561,-40.492 -19.975,-57.864 l 16.385,-16.385 c 6.628,-6.628 6.628,-17.414 0,-24.042 -3.21,-3.211 -7.479,-4.979 -12.021,-4.979 -4.542,0 -8.811,1.768 -12.021,4.979 l -14.734,14.734 c -6.059,-5.292 -12.554,-9.946 -19.397,-13.929 l 14.733,-33.768 c 3.749,-8.591 -0.19,-18.631 -8.795,-22.387 -2.165,-0.938 -4.448,-1.413 -6.786,-1.413 -6.754,0 -12.87,4.002 -15.581,10.2 L 213.26,135.8 c -10.119,-2.605 -20.619,-3.957 -31.302,-3.957 -10.68,0 -21.177,1.351 -31.293,3.954 l -15.038,-34.459 c -2.709,-6.193 -8.829,-10.195 -15.589,-10.195 -2.332,0 -4.612,0.476 -6.79,1.419 -4.161,1.816 -7.366,5.145 -9.025,9.373 -1.659,4.228 -1.572,8.848 0.244,13.008 l 14.733,33.762 c -6.927,4.03 -13.496,8.751 -19.618,14.122 l -14.92,-14.92 c -6.629,-6.628 -17.414,-6.628 -24.042,0 -6.627,6.628 -6.627,17.413 0,24.042 l 16.619,16.619 c -11.317,17.314 -18.076,37.034 -19.811,57.63 -1.247,-0.183 -2.515,-0.287 -3.802,-0.287 -8.072,0 -15.512,3.679 -20.412,10.094 -2.802,3.668 -7.056,5.771 -11.671,5.771 -4.615,0 -8.869,-2.104 -11.671,-5.771 -1.844,-2.414 -5.296,-2.877 -7.709,-1.032 -2.414,1.844 -2.876,5.295 -1.032,7.709 4.9,6.415 12.34,10.094 20.412,10.094 8.072,0 15.512,-3.679 20.412,-10.094 2.802,-3.668 7.056,-5.771 11.671,-5.771 4.616,0 8.87,2.104 11.671,5.771 4.9,6.415 12.34,10.094 20.413,10.094 8.072,0 15.512,-3.679 20.412,-10.094 2.802,-3.668 7.056,-5.771 11.671,-5.771 4.615,0 8.869,2.104 11.671,5.771 4.9,6.415 12.34,10.094 20.412,10.094 8.072,0 15.512,-3.679 20.413,-10.094 2.802,-3.668 7.056,-5.771 11.671,-5.771 4.615,0 8.869,2.104 11.671,5.771 4.9,6.415 12.34,10.094 20.412,10.094 8.072,0 15.512,-3.679 20.412,-10.094 2.802,-3.668 7.056,-5.771 11.671,-5.771 4.616,0 8.87,2.104 11.671,5.771 4.9,6.415 12.34,10.094 20.413,10.094 8.072,0 15.512,-3.679 20.412,-10.094 2.802,-3.668 7.056,-5.771 11.671,-5.771 4.615,0 8.869,2.104 11.671,5.771 4.9,6.415 12.34,10.094 20.412,10.094 8.072,0 15.512,-3.679 20.413,-10.094 1.842,-2.415 1.38,-5.867 -1.033,-7.71 z M 238.376,105.746 c 0.958,-2.189 3.117,-3.604 5.501,-3.604 0.825,0 1.637,0.17 2.4,0.501 3.032,1.323 4.422,4.867 3.099,7.9 l -14.421,33.054 c -3.627,-1.7 -7.333,-3.222 -11.106,-4.562 l 14.527,-33.289 z m -123.828,4.796 c -0.641,-1.468 -0.671,-3.099 -0.086,-4.591 0.585,-1.493 1.717,-2.667 3.171,-3.302 0.776,-0.336 1.584,-0.507 2.403,-0.507 2.39,0 4.553,1.415 5.509,3.6 l 14.527,33.289 c -3.773,1.339 -7.477,2.861 -11.103,4.56 L 114.548,110.542 Z M 289.88,256.003 c -2.802,3.668 -7.056,5.771 -11.671,5.771 -4.616,0 -8.87,-2.104 -11.671,-5.771 -4.9,-6.415 -12.34,-10.094 -20.413,-10.094 -8.072,0 -15.512,3.679 -20.412,10.094 -2.802,3.668 -7.056,5.771 -11.671,5.771 -4.615,0 -8.869,-2.104 -11.671,-5.771 -4.9,-6.415 -12.34,-10.094 -20.412,-10.094 -8.072,0 -15.512,3.679 -20.413,10.094 -2.802,3.668 -7.056,5.771 -11.671,5.771 -4.615,0 -8.869,-2.104 -11.671,-5.771 -4.9,-6.415 -12.34,-10.094 -20.412,-10.094 -8.072,0 -15.512,3.679 -20.412,10.094 -2.802,3.668 -7.056,5.771 -11.671,5.771 -4.616,0 -8.87,-2.104 -11.671,-5.771 -1.685,-2.206 -3.677,-4.08 -5.885,-5.6 1.064,-19.189 6.915,-37.625 17.063,-53.86 l 20.11,20.11 7.778,-7.778 -44.707,-44.706 c -2.339,-2.34 -2.339,-6.146 0,-8.486 2.339,-2.34 6.146,-2.34 8.485,0 l 44.707,44.707 7.778,-7.778 -21.993,-21.993 c 20.725,-17.952 46.994,-27.776 74.583,-27.776 27.494,0 53.676,9.759 74.368,27.594 l -22.175,22.175 7.778,7.778 44.707,-44.707 c 1.133,-1.133 2.64,-1.757 4.243,-1.757 1.603,0 3.109,0.624 4.242,1.757 2.339,2.339 2.339,6.146 0,8.485 l -44.707,44.707 7.778,7.778 20.351,-20.351 c 10.245,16.295 16.152,34.819 17.22,54.102 -2.207,1.521 -4.198,3.394 -5.882,5.599 z"
         inkscape:connector-curvature="0" />
      <g
         id="g3587" />
      <g
         id="g3589" />
      <g
         id="g3591" />
      <g
         id="g3593" />
      <g
         id="g3595" />
      <g
         id="g3597" />
      <g
         id="g3599" />
      <g
         id="g3601" />
      <g
         id="g3603" />
      <g
         id="g3605" />
      <g
         id="g3607" />
      <g
         id="g3609" />
      <g
         id="g3611" />
      <g
         id="g3613" />
      <g
         id="g3615" />
    </g>
    <path
       style="fill:#b3b3b3"
       d="m 4.4592548,1050.41 c -0.1636999,-0.8429 0.3044832,-3.6829 0.6071302,-3.6829 0.093261,0 0.3929558,0.2613 0.6659897,0.5806 0.3357785,0.3926 0.5844344,0.4668 0.7683879,0.2291 0.1839536,-0.2377 -0.1216334,-0.9693 -0.9443141,-2.2606 -1.6267375,-2.5535 -1.540973,-3.0275 0.1134038,-0.6269 0.9453181,1.3717 1.3950302,1.8002 1.607125,1.5312 0.2133512,-0.2707 0.1468181,-0.6163 -0.2414482,-1.2541 -0.5102605,-0.8383 -0.5133706,-0.9068 -0.064877,-1.4314 0.690965,-0.808 2.3238164,-1.6162 3.2654049,-1.6162 0.947902,0 2.575708,0.8097 3.277286,1.6301 0.463714,0.5423 0.459442,0.5972 -0.10724,1.3767 -0.466118,0.6412 -0.521097,0.9011 -0.261512,1.2365 0.259587,0.3355 0.605718,0.024 1.646417,-1.4763 1.673374,-2.4143 1.756923,-1.9125 0.09908,0.595 -0.910084,1.3767 -1.162359,1.9812 -0.944313,2.263 0.218046,0.2818 0.430152,0.2293 0.793957,-0.1961 0.273034,-0.3193 0.565349,-0.5806 0.649589,-0.5806 0.08424,0 0.300492,0.7936 0.480558,1.7636 0.283278,1.5259 0.269947,1.8378 -0.09892,2.3144 -0.383332,0.4954 -0.474453,0.4975 -0.903654,0.021 -0.811858,-0.9018 -1.351584,-0.9731 -2.043468,-0.2699 -0.823733,0.8373 -0.830148,0.8371 -1.794651,-0.084 l -0.793128,-0.7576 -0.7931327,0.7576 c -0.9627632,0.9199 -0.9723288,0.9204 -1.780732,0.098 -0.6867047,-0.698 -1.4895747,-0.6271 -2.006082,0.177 -0.4702407,0.7323 -1.0191897,0.5776 -1.1968557,-0.3371 z"
       id="path3641"
       inkscape:connector-curvature="0" />
    <path
       style="fill:#b3b3b3"
       d=""
       id="path3643"
       inkscape:connector-curvature="0"
       transform="translate(0,1032.3622)" />
    <path
       style="fill:#b3b3b3"
       d="m 12.754478,1040.9808 c 0.0901,-0.3034 0.236671,-0.9268 0.32572,-1.3852 0.08905,-0.4586 0.269431,-0.8336 0.400849,-0.8336 0.313368,0 0.308115,0.048 -0.166647,1.5161 -0.388677,1.202 -0.898046,1.8413 -0.559922,0.7027 z"
       id="path3645"
       inkscape:connector-curvature="0" />
    <path
       style="fill:#b3b3b3"
       d="m 7.3898808,1041.6604 c -0.503208,-1.7356 -0.7398396,-2.6294 -0.740972,-2.7986 -0.00242,-0.362 0.2832605,-0.5581 0.4552464,-0.3126 0.070515,0.1007 0.8319417,2.671 0.8319417,2.8083 0,0.026 -0.1178916,0.1226 -0.2619814,0.2137 -0.1906028,0.1201 -0.2680444,0.1451 -0.2842347,0.089 z"
       id="path3649"
       inkscape:connector-curvature="0" />
  </g>
</svg>
